# xmcd
# 
# Track frame offsets:
#     150
#     20637
#     35985
#     47918
#     66963
#     84281
#     104811
#     121404
# 
# Disc length: 1795
# 
# Revision: 0
# Processed by: cddbd v1.5.2PL0 Copyright (c) Steve Scherf et al.
# Submitted via: fre:ac v1.0.27
# 
DISCID=73070108
DTITLE=Michael Peterson - You Could Hear A Pin Drop
DYEAR=2009
DGENRE=Country
TTITLE0=You Could Hear A Pin drop
TTITLE1=I Remember America
TTITLE2=The Warriors Anthem
TTITLE3=I'm A Soldier
TTITLE4=The Road Less Traveled
TTITLE5=It's Who We Are
TTITLE6=Little Things
TTITLE7=Let Them In Peter
EXTD=
EXTT0=
EXTT1=
EXTT2=
EXTT3=
EXTT4=
EXTT5=
EXTT6=
EXTT7=
PLAYORDER=
